<?xml version="1.0" encoding="utf-8"?>
<!-- Generator: Adobe Illustrator 19.1.1, SVG Export Plug-In . SVG Version: 6.00 Build 0)  -->
<svg version="1.1" id="Layer_1" xmlns="http://www.w3.org/2000/svg" xmlns:xlink="http://www.w3.org/1999/xlink" x="0px" y="0px"
	 viewBox="0 0 673.2 673.2" style="enable-background:new 0 0 673.2 673.2;" xml:space="preserve">
<style type="text/css">
	.st0{fill:url(#SVGID_1_);}
	.st1{fill:url(#SVGID_2_);}
	.st2{fill:#4EB648;}
</style>
<g>
	<rect width="673.2" height="673.2"/>
	
		<linearGradient id="SVGID_1_" gradientUnits="userSpaceOnUse" x1="286.6566" y1="732.8129" x2="239.0274" y2="817.5924" gradientTransform="matrix(2.5344 0 0 2.5344 -385.4542 -1523.7169)">
		<stop  offset="0" style="stop-color:#001400"/>
		<stop  offset="0.2693" style="stop-color:#314D13"/>
		<stop  offset="0.618" style="stop-color:#6B9029"/>
		<stop  offset="0.871" style="stop-color:#8FBB37"/>
		<stop  offset="1" style="stop-color:#9DCB3C"/>
	</linearGradient>
	<polygon class="st0" points="183.1,613 185.9,614.6 340.2,336.6 337.5,335 	"/>
	
		<linearGradient id="SVGID_2_" gradientUnits="userSpaceOnUse" x1="358.5746" y1="479.1956" x2="180.6739" y2="549.9628" gradientTransform="matrix(1.1006 0 0 1.1006 -22.667 -32.6543)">
		<stop  offset="0" style="stop-color:#000000;stop-opacity:0.8"/>
		<stop  offset="1" style="stop-color:#4CB648"/>
	</linearGradient>
	<path class="st1" d="M185.9,614.6c45.5,25.2,97.9,39.5,153.6,39.5c43.6,0,85.1-8.8,122.9-24.7L340.2,336.6L185.9,614.6z"/>
	<path class="st2" d="M216.4,336.6c0,66.3,53.9,120.2,120.2,120.2c66.3,0,120.2-53.9,120.2-120.2c0-66.3-53.9-120.2-120.2-120.2
		C270.3,216.4,216.4,270.3,216.4,336.6z M218.5,336.6c0-65.1,53-118.1,118.1-118.1c65.1,0,118.1,53,118.1,118.1
		c0,65.1-53,118.1-118.1,118.1C271.5,454.7,218.5,401.7,218.5,336.6z"/>
	<path class="st2" d="M150.2,336.6c0,102.8,83.6,186.4,186.4,186.4C439.4,523,523,439.4,523,336.6c0-102.8-83.6-186.4-186.4-186.4
		C233.8,150.2,150.2,233.8,150.2,336.6z M152.3,336.6c0-101.6,82.7-184.3,184.3-184.3S520.9,235,520.9,336.6
		c0,101.6-82.7,184.3-184.3,184.3S152.3,438.2,152.3,336.6z"/>
	<path class="st2" d="M84,336.6c0,139.3,113.3,252.6,252.6,252.6c139.3,0,252.6-113.3,252.6-252.6C589.2,197.3,475.9,84,336.6,84
		C197.3,84,84,197.3,84,336.6z M86.1,336.6c0-138.1,112.4-250.5,250.5-250.5c138.1,0,250.5,112.4,250.5,250.5
		c0,138.1-112.4,250.5-250.5,250.5C198.5,587.1,86.1,474.7,86.1,336.6z"/>
	<path class="st2" d="M17.8,336.6c0,175.8,143,318.8,318.8,318.8c175.8,0,318.8-143,318.8-318.8c0-175.8-143-318.8-318.8-318.8
		C160.8,17.8,17.8,160.8,17.8,336.6z M19.9,336.6C19.9,162,162,19.9,336.6,19.9c174.6,0,316.7,142.1,316.7,316.7
		c0,174.6-142.1,316.7-316.7,316.7C162,653.3,19.9,511.2,19.9,336.6z"/>
	<path class="st2" d="M0,336.6c0,185.6,151,336.6,336.6,336.6c185.6,0,336.6-151,336.6-336.6C673.2,151,522.2,0,336.6,0
		C151,0,0,151,0,336.6z M3.9,336.6C3.9,153.2,153.2,3.9,336.6,3.9s332.7,149.2,332.7,332.7c0,183.4-149.2,332.7-332.7,332.7
		S3.9,520,3.9,336.6z"/>
</g>
</svg>
